0
SECTION
2
HEADER
9
$INSUNITS
70
4
9
$ACADVER
1
AC1014
9
$HANDSEED
5
FFFF
0
ENDSEC
0
SECTION
2
TABLES
0
TABLE
2
VPORT
5
8
100
AcDbSymbolTable
0
ENDTAB
0
TABLE
2
LTYPE
5
5
100
AcDbSymbolTable
0
LTYPE
5
14
100
AcDbSymbolTableRecord
100
AcDbLinetypeTableRecord
2
BYBLOCK
70
0
0
LTYPE
5
15
100
AcDbSymbolTableRecord
100
AcDbLinetypeTableRecord
2
BYLAYER
70
0
0
ENDTAB
0
TABLE
2
LAYER
5
2
100
AcDbSymbolTable
70
2
0
LAYER
5
50
100
AcDbSymbolTableRecord
100
AcDbLayerTableRecord
2
0
70
0
6
CONTINUOUS
0
ENDTAB
0
TABLE
2
STYLE
5
3
100
AcDbSymbolTable
70
1
0
STYLE
5
11
100
AcDbSymbolTableRecord
100
AcDbTextStyleTableRecord
2
STANDARD
70
0
0
ENDTAB
0
TABLE
2
VIEW
5
6
100
AcDbSymbolTable
70
0
0
ENDTAB
0
TABLE
2
UCS
5
7
100
AcDbSymbolTable
70
0
0
ENDTAB
0
TABLE
2
APPID
5
9
100
AcDbSymbolTable
70
2
0
APPID
5
12
100
AcDbSymbolTableRecord
100
AcDbRegAppTableRecord
2
ACAD
70
0
0
ENDTAB
0
TABLE
2
DIMSTYLE
5
A
100
AcDbSymbolTable
70
1
0
ENDTAB
0
TABLE
2
BLOCK_RECORD
5
1
100
AcDbSymbolTable
70
1
0
BLOCK_RECORD
5
1F
100
AcDbSymbolTableRecord
100
AcDbBlockTableRecord
2
*MODEL_SPACE
0
BLOCK_RECORD
5
1B
100
AcDbSymbolTableRecord
100
AcDbBlockTableRecord
2
*PAPER_SPACE
0
ENDTAB
0
ENDSEC
0
SECTION
2
BLOCKS
0
BLOCK
5
20
100
AcDbEntity
100
AcDbBlockBegin
2
*MODEL_SPACE
0
ENDBLK
5
21
100
AcDbEntity
100
AcDbBlockEnd
0
BLOCK
5
1C
100
AcDbEntity
100
AcDbBlockBegin
2
*PAPER_SPACE
0
ENDBLK
5
1D
100
AcDbEntity
100
AcDbBlockEnd
0
ENDSEC
0
SECTION
2
ENTITIES
0
LWPOLYLINE
5
100
100
AcDbEntity
8
0
100
AcDbPolyline
90
4
70
1
43
0.0
10
-37.241250000000001
20
-35.575000000000053
10
-5.6212499999999919
20
-35.574999999999989
10
-5.621249999999991
20
-21.574999999999989
10
-37.241250000000008
20
-21.575000000000053
0
LWPOLYLINE
5
101
100
AcDbEntity
8
0
100
AcDbPolyline
90
4
70
1
43
0.0
10
-86.583749999999412
20
-2.5249999999998201
10
-118.20374999999945
20
-2.5249999999998507
10
-118.20374999999945
20
-16.524999999999849
10
-86.583749999999412
20
-16.524999999999821
0
LWPOLYLINE
5
102
100
AcDbEntity
8
0
100
AcDbPolyline
90
12
70
1
43
0.0
10
-133.35000000000002
20
-71.159999996200028
10
-123.95200000000001
20
-71.1599999962
10
-123.95200000000001
20
-60.999999996200003
10
-133.35000000000002
20
-60.999999996200025
10
-133.35000000000002
20
-38.100000000000009
10
-138.11250000000001
20
-38.100000000000001
10
-138.11250000000001
20
-19.050000000000001
10
-128.58750000000001
20
-19.050000000000001
10
-128.58750000000001
20
0
10
0
20
0
10
0
20
-95.25
10
-133.35000000000002
20
-95.25
0
LWPOLYLINE
5
103
100
AcDbEntity
8
0
100
AcDbPolyline
90
4
70
1
43
0.0
10
-121.58749999999932
20
-21.5749999999964
10
-135.58749999999932
20
-21.575000000004252
10
-135.58749999999932
20
-35.575000000004223
10
-121.58750000000293
20
-35.574999999996407
0
LWPOLYLINE
5
104
100
AcDbEntity
8
0
100
AcDbPolyline
90
4
70
1
43
0.0
10
-16.525000000000027
20
-92.724999999999994
10
-2.5249999999999773
20
-92.725000000000009
10
-2.5249999999999728
20
-78.725000000000009
10
-16.525000000000034
20
-78.724999999999994
0
LWPOLYLINE
5
105
100
AcDbEntity
8
0
100
AcDbPolyline
90
4
70
1
43
0.0
10
-9.6687500000000259
20
-40.624999999999858
10
-23.668750000000035
20
-40.624999999999943
10
-23.668750000000024
20
-54.624999999999986
10
-9.6687499999999638
20
-54.624999999999858
0
LWPOLYLINE
5
106
100
AcDbEntity
8
0
100
AcDbPolyline
90
4
70
1
43
0.0
10
-69.199999999998795
20
-59.675000000001283
10
-83.200000000000443
20
-59.674999999999045
10
-83.200000000000443
20
-73.67499999999896
10
-69.199999999997942
20
-73.67500000000129
0
LWPOLYLINE
5
107
100
AcDbEntity
8
0
100
AcDbPolyline
90
4
70
1
43
0.0
10
-64.15000000000019
20
-59.675000000001724
10
-64.15000000000019
20
-73.675000000001731
10
-50.150000000005114
20
-73.674999999997894
10
-50.150000000003594
20
-59.674999999997887
0
LWPOLYLINE
5
108
100
AcDbEntity
8
0
100
AcDbPolyline
90
4
70
1
43
0.0
10
-35.862499999999649
20
-54.625000000001975
10
-35.862499999999919
20
-40.625000000001975
10
-49.862499999999919
20
-40.625000000000981
10
-49.862499999999919
20
-54.625000000000945
0
LWPOLYLINE
5
109
100
AcDbEntity
8
0
100
AcDbPolyline
90
4
70
1
43
0.0
10
-73.962500000000091
20
-40.625000000001393
10
-87.962500000000119
20
-40.62499999999914
10
-87.962500000000119
20
-54.624999999999119
10
-73.962499999999608
20
-54.625000000001407
0
LWPOLYLINE
5
110
100
AcDbEntity
8
0
100
AcDbPolyline
90
4
70
1
43
0.0
10
-97.487499999999883
20
-21.575000000000117
10
-97.487499999999883
20
-35.575000000000088
10
-83.487500000000239
20
-35.575000000000017
10
-83.487499999999883
20
-21.57500000000001
0
LWPOLYLINE
5
111
100
AcDbEntity
8
0
100
AcDbPolyline
90
4
70
1
43
0.0
10
-102.5374999999992
20
-21.574999999999701
10
-116.5374999999992
20
-21.574999999999346
10
-116.5374999999992
20
-35.574999999999307
10
-102.53750000000238
20
-35.574999999999697
0
LWPOLYLINE
5
112
100
AcDbEntity
8
0
100
AcDbPolyline
90
4
70
1
43
0.0
10
-59.38750000000006
20
-21.575000000000163
10
-59.38750000000006
20
-35.575000000000124
10
-45.387500000000458
20
-35.575000000000159
10
-45.38750000000006
20
-21.575000000000163
0
LWPOLYLINE
5
113
100
AcDbEntity
8
0
100
AcDbPolyline
90
4
70
1
43
0.0
10
-130.82499999999999
20
-92.724999999999994
10
-116.82499999999999
20
-92.725000000000009
10
-116.82499999999999
20
-78.725000000000009
10
-130.82499999999999
20
-78.725000000000009
0
LWPOLYLINE
5
114
100
AcDbEntity
8
0
100
AcDbPolyline
90
4
70
1
43
0.0
10
-92.725000000000009
20
-92.725000000000023
10
-78.72499999999998
20
-92.725000000000051
10
-78.724999999999994
20
-78.725000000000037
10
-92.725000000000009
20
-78.725000000000037
0
LWPOLYLINE
5
115
100
AcDbEntity
8
0
100
AcDbPolyline
90
4
70
1
43
0.0
10
-68.912499999999824
20
-40.625000000001819
10
-68.912499999999824
20
-54.625000000001776
10
-54.91250000000052
20
-54.624999999997961
10
-54.912499999999802
20
-40.624999999997968
0
CIRCLE
5
116
100
AcDbEntity
8
0
100
AcDbCircle
10
-21.589999999999996
20
-12.699999999999999
30
0
40
1.0999999999999985
210
0
220
-0
230
1
0
CIRCLE
5
117
100
AcDbEntity
8
0
100
AcDbCircle
10
-25.654
20
-74.676000000000002
30
0
40
1.0999999999999985
210
0
220
-0
230
1
0
CIRCLE
5
118
100
AcDbEntity
8
0
100
AcDbCircle
10
-125.98400000000001
20
-74.168000000000006
30
0
40
1.0999999999999943
210
0
220
-0
230
1
0
CIRCLE
5
119
100
AcDbEntity
8
0
100
AcDbCircle
10
-120.58649999999936
20
-8.3820000000000014
30
0
40
1.0999999999999943
210
0
220
-0
230
1
0
LWPOLYLINE
5
120
100
AcDbEntity
8
0
100
AcDbPolyline
90
4
70
1
43
0.0
10
-68.912499999999397
20
-2.5249999999993289
10
-68.912499999999397
20
-16.524999999999366
10
-54.912499999999284
20
-16.524999999999277
10
-54.912499999999426
20
-2.5249999999992756
0
LWPOLYLINE
5
121
100
AcDbEntity
8
0
100
AcDbPolyline
90
4
70
1
43
0.0
10
-31.099999999999532
20
-16.524999999996353
10
-31.099999999999746
20
-2.5249999999963513
10
-45.099999999999753
20
-2.524999999996751
10
-45.099999999999731
20
-16.52499999999679
0
LWPOLYLINE
5
122
100
AcDbEntity
8
0
100
AcDbPolyline
90
4
70
1
43
0.0
10
-111.77499999999995
20
-92.724999999999966
10
-97.774999999999963
20
-92.724999999999994
10
-97.774999999999963
20
-78.724999999999994
10
-111.77499999999996
20
-78.724999999999994
0
LWPOLYLINE
5
123
100
AcDbEntity
8
0
100
AcDbPolyline
90
4
70
1
43
0.0
10
-21.287500000000001
20
-73.675000000000011
10
-7.287499999999989
20
-73.674999999999983
10
-7.2875000000000156
20
-59.674999999999976
10
-21.287500000000009
20
-59.674999999999976
0
LWPOLYLINE
5
124
100
AcDbEntity
8
0
100
AcDbPolyline
90
4
70
1
43
0.0
10
-78.437500000000213
20
-21.575000000000362
10
-78.437500000000213
20
-35.57500000000033
10
-64.437499999999218
20
-35.575000000000259
10
-64.437500000000199
20
-21.575000000000255
0
LWPOLYLINE
5
125
100
AcDbEntity
8
0
100
AcDbPolyline
90
4
70
1
43
0.0
10
-93.012500000009751
20
-54.625000000004263
10
-93.012500000000529
20
-40.625000000009663
10
-107.01250000000056
20
-40.624999999992056
10
-107.01250000000056
20
-54.624999999992035
0
LWPOLYLINE
5
126
100
AcDbEntity
8
0
100
AcDbPolyline
90
4
70
1
43
0.0
10
-31.099999999998403
20
-73.675000000002058
10
-31.099999999998992
20
-59.675000000002058
10
-45.100000000000279
20
-59.675000000001063
10
-45.100000000000279
20
-73.675000000001063
0
LWPOLYLINE
5
127
100
AcDbEntity
8
0
100
AcDbPolyline
90
4
70
1
43
0.0
10
-112.06250000006646
20
-54.625000000021096
10
-112.0624999999781
20
-40.625000000021096
10
-126.06249999997812
20
-40.62499999993279
10
-126.06249999997812
20
-54.624999999932768
0
LWPOLYLINE
5
128
100
AcDbEntity
8
0
100
AcDbPolyline
90
4
70
1
43
0.0
10
-88.250000000008413
20
-73.675000000006293
10
-88.249999999997726
20
-59.675000000006293
10
-102.24999999999773
20
-59.674999999988671
10
-102.24999999999773
20
-73.674999999988671
0
LWPOLYLINE
5
129
100
AcDbEntity
8
0
100
AcDbPolyline
90
4
70
1
43
0.0
10
-107.30000000006656
20
-73.675000000020646
10
-107.29999999997824
20
-59.675000000020631
10
-121.29999999997824
20
-59.674999999932311
10
-121.29999999997824
20
-73.674999999932311
0
LWPOLYLINE
5
130
100
AcDbEntity
8
0
100
AcDbPolyline
90
4
70
1
43
0.0
10
-73.674999999999969
20
-92.724999999999994
10
-59.674999999999955
20
-92.725000000000009
10
-59.674999999999976
20
-78.725000000000023
10
-73.674999999999983
20
-78.725000000000009
0
LWPOLYLINE
5
131
100
AcDbEntity
8
0
100
AcDbPolyline
90
4
70
1
43
0.0
10
-54.625
20
-92.724999999999966
10
-40.625
20
-92.724999999999994
10
-40.625000000000007
20
-78.724999999999994
10
-54.625000000000014
20
-78.72499999999998
0
LWPOLYLINE
5
132
100
AcDbEntity
8
0
100
AcDbPolyline
90
4
70
1
43
0.0
10
-35.574999999999989
20
-92.725000000000009
10
-21.57500000000001
20
-92.725000000000009
10
-21.575000000000003
20
-78.725000000000009
10
-35.575000000000003
20
-78.725000000000009
0
ENDSEC
0
SECTION
2
OBJECTS
0
DICTIONARY
5
C
100
AcDbDictionary
3
ACAD_GROUP
350
D
3
ACAD_MLINESTYLE
350
17
0
DICTIONARY
5
D
100
AcDbDictionary
0
DICTIONARY
5
1A
330
C
100
AcDbDictionary
0
DICTIONARY
5
17
100
AcDbDictionary
0
ENDSEC
0
EOF
