0
SECTION
2
HEADER
9
$INSUNITS
70
4
9
$ACADVER
1
AC1014
9
$HANDSEED
5
FFFF
0
ENDSEC
0
SECTION
2
TABLES
0
TABLE
2
VPORT
5
8
100
AcDbSymbolTable
0
ENDTAB
0
TABLE
2
LTYPE
5
5
100
AcDbSymbolTable
0
LTYPE
5
14
100
AcDbSymbolTableRecord
100
AcDbLinetypeTableRecord
2
BYBLOCK
70
0
0
LTYPE
5
15
100
AcDbSymbolTableRecord
100
AcDbLinetypeTableRecord
2
BYLAYER
70
0
0
ENDTAB
0
TABLE
2
LAYER
5
2
100
AcDbSymbolTable
70
2
0
LAYER
5
50
100
AcDbSymbolTableRecord
100
AcDbLayerTableRecord
2
0
70
0
6
CONTINUOUS
0
ENDTAB
0
TABLE
2
STYLE
5
3
100
AcDbSymbolTable
70
1
0
STYLE
5
11
100
AcDbSymbolTableRecord
100
AcDbTextStyleTableRecord
2
STANDARD
70
0
0
ENDTAB
0
TABLE
2
VIEW
5
6
100
AcDbSymbolTable
70
0
0
ENDTAB
0
TABLE
2
UCS
5
7
100
AcDbSymbolTable
70
0
0
ENDTAB
0
TABLE
2
APPID
5
9
100
AcDbSymbolTable
70
2
0
APPID
5
12
100
AcDbSymbolTableRecord
100
AcDbRegAppTableRecord
2
ACAD
70
0
0
ENDTAB
0
TABLE
2
DIMSTYLE
5
A
100
AcDbSymbolTable
70
1
0
ENDTAB
0
TABLE
2
BLOCK_RECORD
5
1
100
AcDbSymbolTable
70
1
0
BLOCK_RECORD
5
1F
100
AcDbSymbolTableRecord
100
AcDbBlockTableRecord
2
*MODEL_SPACE
0
BLOCK_RECORD
5
1B
100
AcDbSymbolTableRecord
100
AcDbBlockTableRecord
2
*PAPER_SPACE
0
ENDTAB
0
ENDSEC
0
SECTION
2
BLOCKS
0
BLOCK
5
20
100
AcDbEntity
100
AcDbBlockBegin
2
*MODEL_SPACE
0
ENDBLK
5
21
100
AcDbEntity
100
AcDbBlockEnd
0
BLOCK
5
1C
100
AcDbEntity
100
AcDbBlockBegin
2
*PAPER_SPACE
0
ENDBLK
5
1D
100
AcDbEntity
100
AcDbBlockEnd
0
ENDSEC
0
SECTION
2
ENTITIES
0
CIRCLE
5
100
100
AcDbEntity
8
0
100
AcDbCircle
10
-145.28800000000001
20
-74.168000000000063
30
0
40
1.0999999999999943
210
0
220
-0
230
1
0
CIRCLE
5
101
100
AcDbEntity
8
0
100
AcDbCircle
10
-35.8140000000001
20
-9.3979999999999997
30
0
40
1.0999999999999985
210
0
220
-0
230
1
0
LWPOLYLINE
5
102
100
AcDbEntity
8
0
100
AcDbPolyline
90
4
70
1
43
0.0
10
-40.624999999989527
20
-2.5250000002581041
10
-54.624999999989534
20
-2.5250000002581041
10
-54.624999999989534
20
-16.525000000258107
10
-40.624999999995666
20
-16.525000000258107
0
LWPOLYLINE
5
103
100
AcDbEntity
8
0
100
AcDbPolyline
90
4
70
1
43
0.0
10
-31.099999999989137
20
-59.675000000001177
10
-45.099999999989137
20
-59.675000000001184
10
-45.099999999989137
20
-73.675000000001177
10
-31.099999999989137
20
-73.675000000001177
0
LWPOLYLINE
5
104
100
AcDbEntity
8
0
100
AcDbPolyline
90
4
70
1
43
0.0
10
-83.487499999994711
20
-21.574999999997743
10
-97.487499999994725
20
-21.574999999997743
10
-97.487499999994725
20
-35.574999999997743
10
-83.487499999994711
20
-35.574999999997743
0
LWPOLYLINE
5
105
100
AcDbEntity
8
0
100
AcDbPolyline
90
4
70
1
43
0.0
10
-49.86249999998924
20
-54.624999999999623
10
-35.862499999989232
20
-54.624999999999623
10
-35.862499999989232
20
-40.624999999999616
10
-49.86249999998924
20
-40.624999999999616
0
LWPOLYLINE
5
106
100
AcDbEntity
8
0
100
AcDbPolyline
90
4
70
1
43
0.0
10
-126.06249999999669
20
-54.624999999999488
10
-112.0624999999967
20
-54.624999999999488
10
-112.0624999999967
20
-40.624999999999488
10
-126.06249999999669
20
-40.624999999999503
0
LWPOLYLINE
5
107
100
AcDbEntity
8
0
100
AcDbPolyline
90
4
70
1
43
0.0
10
-107.01249999999483
20
-54.624999999999517
10
-93.012499999994816
20
-54.624999999999517
10
-93.012499999994816
20
-40.62499999999951
10
-107.01249999999483
20
-40.624999999999517
0
LWPOLYLINE
5
108
100
AcDbEntity
8
0
100
AcDbPolyline
90
4
70
1
43
0.0
10
-130.82500000000306
20
-78.724999999927704
10
-130.82500000000306
20
-92.724999999927718
10
-116.82500000000306
20
-92.724999999927718
10
-116.82500000000306
20
-78.724999999927704
0
LWPOLYLINE
5
109
100
AcDbEntity
8
0
100
AcDbPolyline
90
4
70
1
43
0.0
10
-83.487499999998747
20
-2.5250000000195971
10
-97.487499999998747
20
-2.5250000000195971
10
-97.487499999998747
20
-16.525000000019599
10
-83.487499999992281
20
-16.525000000019599
0
LWPOLYLINE
5
110
100
AcDbEntity
8
0
100
AcDbPolyline
90
4
70
1
43
0.0
10
-40.62500000000302
20
-92.72499999994217
10
-40.62500000000302
20
-78.724999999942156
10
-54.625000000003034
20
-78.724999999942156
10
-54.625000000002977
20
-92.72499999994217
0
LWPOLYLINE
5
111
100
AcDbEntity
8
0
100
AcDbPolyline
90
4
70
1
43
0.0
10
-59.67500000001646
20
-92.724999999778078
10
-59.675000000016425
20
-78.724999999778078
10
-73.675000000016439
20
-78.724999999778092
10
-73.675000000016396
20
-92.724999999778035
0
LWPOLYLINE
5
112
100
AcDbEntity
8
0
100
AcDbPolyline
90
4
70
1
43
0.0
10
-35.574999999995313
20
-92.724999999876417
10
-21.574999999995349
20
-92.724999999876417
10
-21.574999999995349
20
-78.724999999876403
10
-35.574999999995349
20
-78.724999999876403
0
LWPOLYLINE
5
113
100
AcDbEntity
8
0
100
AcDbPolyline
90
4
70
1
43
0.0
10
-70.434999999991078
20
-2.5250000002596362
10
-70.434999999991078
20
-16.525000000259638
10
-62.814999999991066
20
-16.525000000259638
10
-62.814999999991066
20
-2.5250000002596353
0
LWPOLYLINE
5
114
100
AcDbEntity
8
0
100
AcDbPolyline
90
4
70
1
43
0.0
10
-154.92500000000086
20
-35.574999999999463
10
-154.92500000000047
20
-21.574999999999459
10
-168.92500000000044
20
-21.574999999999459
10
-168.92500000000044
20
-35.574999999999463
0
LWPOLYLINE
5
115
100
AcDbEntity
8
0
100
AcDbPolyline
90
4
70
1
43
0.0
10
-78.725000000002737
20
-92.724999999809484
10
-78.725000000002751
20
-78.724999999809469
10
-92.725000000002808
20
-78.724999999809341
10
-92.725000000002751
20
-92.724999999809341
0
LWPOLYLINE
5
116
100
AcDbEntity
8
0
100
AcDbPolyline
90
4
70
1
43
0.0
10
-107.29999999999708
20
-59.675000000001901
10
-121.2999999999971
20
-59.675000000001937
10
-121.2999999999971
20
-73.675000000001901
10
-107.29999999999708
20
-73.675000000001901
0
LWPOLYLINE
5
117
100
AcDbEntity
8
0
100
AcDbPolyline
90
4
70
1
43
0.0
10
-83.199999999993807
20
-73.675000000000864
10
-69.199999999991547
20
-73.675000000004204
10
-69.199999999993793
20
-59.675000000004204
10
-83.199999999993807
20
-59.675000000000864
0
LWPOLYLINE
5
118
100
AcDbEntity
8
0
100
AcDbPolyline
90
4
70
1
43
0.0
10
-150.16250000004396
20
-73.675000000000765
10
-150.16249999995813
20
-59.675000000000757
10
-164.16249999995813
20
-59.675000000000736
10
-164.16249999995813
20
-73.674999999914931
0
LWPOLYLINE
5
119
100
AcDbEntity
8
0
100
AcDbPolyline
90
4
70
1
43
0.0
10
-45.38749999999105
20
-35.574999999997821
10
-45.38749999999105
20
-21.574999999997818
10
-59.387499999991036
20
-21.574999999997836
10
-59.387499999991036
20
-35.574999999997836
0
LWPOLYLINE
5
120
100
AcDbEntity
8
0
100
AcDbPolyline
90
4
70
1
43
0.0
10
-40.337499999989177
20
-35.5749999999978
10
-26.337499999989156
20
-35.5749999999978
10
-26.337499999989156
20
-21.574999999997804
10
-40.337499999989163
20
-21.574999999997821
0
LWPOLYLINE
5
121
100
AcDbEntity
8
0
100
AcDbPolyline
90
4
70
1
43
0.0
10
-149.87500000001012
20
-78.725000000012983
10
-149.87500000001009
20
-92.725000000012983
10
-135.87500000001012
20
-92.725000000012983
10
-135.87500000001012
20
-78.725000000012983
0
LWPOLYLINE
5
122
100
AcDbEntity
8
0
100
AcDbPolyline
90
4
70
1
43
0.0
10
-168.92500000000052
20
-92.724999999999724
10
-154.92500000000049
20
-92.724999999999724
10
-154.92500000000049
20
-78.72499999999971
10
-168.92500000000047
20
-78.724999999999724
0
LWPOLYLINE
5
123
100
AcDbEntity
8
0
100
AcDbPolyline
90
4
70
1
43
0.0
10
-64.149999999991238
20
-59.675000000002008
10
-64.149999999991238
20
-73.675000000001972
10
-50.149999999991444
20
-73.675000000001717
10
-50.149999999991238
20
-59.675000000001717
0
LWPOLYLINE
5
124
100
AcDbEntity
8
0
100
AcDbPolyline
90
4
70
1
43
0.0
10
-126.34999999999879
20
-73.675000000001802
10
-126.34999999999879
20
-59.675000000001816
10
-140.3499999999988
20
-59.675000000001802
10
-140.3499999999988
20
-73.675000000001319
0
LWPOLYLINE
5
125
100
AcDbEntity
8
0
100
AcDbPolyline
90
4
70
1
43
0.0
10
-12.049999999987564
20
-59.674999999999542
10
-26.04999999998757
20
-59.674999999999727
10
-26.04999999998757
20
-73.674999999999727
10
-12.049999999987742
20
-73.674999999999542
0
LWPOLYLINE
5
126
100
AcDbEntity
8
0
100
AcDbPolyline
90
4
70
1
43
0.0
10
-134.20875000000007
20
-40.625000000001002
10
-165.82874999999999
20
-40.625000000001002
10
-165.82874999999999
20
-54.625000000001009
10
-134.20875000000007
20
-54.625000000001009
0
LWPOLYLINE
5
127
100
AcDbEntity
8
0
100
AcDbPolyline
90
4
70
1
43
0.0
10
-97.774999999993994
20
-78.724999999857317
10
-111.77499999999398
20
-78.724999999857317
10
-111.77499999999398
20
-92.724999999857317
10
-97.774999999993952
20
-92.724999999857289
0
LWPOLYLINE
5
128
100
AcDbEntity
8
0
100
AcDbPolyline
90
4
70
1
43
0.0
10
-30.812499999987359
20
-54.624999999999602
10
-16.812499999987331
20
-54.624999999999602
10
-16.812499999987367
20
-40.624999999999602
10
-30.812499999987359
20
-40.624999999999602
0
LWPOLYLINE
5
129
100
AcDbEntity
8
0
100
AcDbPolyline
90
4
70
1
43
0.0
10
-2.5250000000018624
20
-92.724999999822529
10
-2.5250000000018535
20
-78.724999999822529
10
-16.525000000001857
20
-78.724999999822529
10
-16.525000000001786
20
-92.724999999822529
0
LWPOLYLINE
5
130
100
AcDbEntity
8
0
100
AcDbPolyline
90
4
70
1
43
0.0
10
-102.24999999999524
20
-59.675000000002214
10
-102.24999999999524
20
-73.675000000002228
10
-88.249999999995225
20
-73.675000000002186
10
-88.249999999995225
20
-59.6750000000022
0
LWPOLYLINE
5
131
100
AcDbEntity
8
0
100
AcDbPolyline
90
4
70
1
43
0.0
10
-128.7312500000003
20
-35.574999999998738
10
-128.7312499999999
20
-21.574999999998742
10
-142.7312499999999
20
-21.574999999998742
10
-142.7312499999999
20
-35.574999999998738
0
LWPOLYLINE
5
132
100
AcDbEntity
8
0
100
AcDbPolyline
90
4
70
1
43
0.0
10
-121.29999999999978
20
-2.5250000000083284
10
-121.29999999999978
20
-16.52500000000833
10
-107.29999999999235
20
-16.52500000000833
10
-107.29999999999977
20
-2.5250000000083288
0
LWPOLYLINE
5
133
100
AcDbEntity
8
0
100
AcDbPolyline
90
4
70
1
43
0.0
10
-7.2874999999873857
20
-35.574999999997694
10
-7.2874999999873147
20
-21.574999999997686
10
-21.287499999987318
20
-21.574999999997992
10
-21.287499999987318
20
-35.574999999997992
0
LWPOLYLINE
5
134
100
AcDbEntity
8
0
100
AcDbPolyline
90
4
70
1
43
0.0
10
-73.962499999993099
20
-54.624999999999339
10
-73.962499999992914
20
-40.624999999999332
10
-87.962499999992914
20
-40.624999999999616
10
-87.962499999992914
20
-54.624999999999623
0
LWPOLYLINE
5
135
100
AcDbEntity
8
0
100
AcDbPolyline
90
4
70
1
43
0.0
10
-68.912499999991113
20
-54.624999999999567
10
-54.912499999991113
20
-54.624999999999602
10
-54.912499999991113
20
-40.624999999999602
10
-68.912499999991113
20
-40.624999999999602
0
LWPOLYLINE
5
136
100
AcDbEntity
8
0
100
AcDbPolyline
90
4
70
1
43
0.0
10
-102.53749999999656
20
-35.574999999997658
10
-102.53749999999656
20
-21.574999999997658
10
-116.53749999999654
20
-21.574999999997747
10
-116.53749999999658
20
-35.574999999997587
0
LWPOLYLINE
5
137
100
AcDbEntity
8
0
100
AcDbPolyline
90
4
70
1
43
0.0
10
-78.43749999999325
20
-35.574999999998212
10
-64.437499999992269
20
-35.574999999997928
10
-64.437499999993264
20
-21.574999999997932
10
-78.43749999999325
20
-21.574999999997843
0
LWPOLYLINE
5
138
100
AcDbEntity
8
0
100
AcDbPolyline
90
4
70
1
43
0.0
10
-24.81499999999107
20
-2.5250000002596518
10
-32.434999999991071
20
-2.5250000002596362
10
-32.434999999991071
20
-16.525000000259638
10
-24.81499999999107
20
-16.525000000259652
0
CIRCLE
5
139
100
AcDbEntity
8
0
100
AcDbCircle
10
-7.3659999999999881
20
-74.168000000000063
30
0
40
1.0999999999999999
210
0
220
-0
230
1
0
CIRCLE
5
140
100
AcDbEntity
8
0
100
AcDbCircle
10
-153.66999999999999
20
-17.272000000000002
30
0
40
1.0999999999999943
210
0
220
-0
230
1
0
LWPOLYLINE
5
141
100
AcDbEntity
8
0
100
AcDbPolyline
90
10
70
1
43
0.0
10
1.3322676295501878e-14
20
-59.142000003800064
10
-9.3979999999999855
20
-59.142000003800057
10
-9.3979999999999855
20
-69.30200000380006
10
1.4030887854528848e-14
20
-69.30200000380006
10
0
20
-95.250000000000057
10
-171.44999999999999
20
-95.250000000000085
10
-171.45000000000013
20
-8.8817841970012523e-14
10
-19.050000000000136
20
1.7763568394002505e-14
10
-19.050000000000065
20
-19.050000000000061
10
1.1102230246251565e-14
20
-19.050000000000065
0
ENDSEC
0
SECTION
2
OBJECTS
0
DICTIONARY
5
C
100
AcDbDictionary
3
ACAD_GROUP
350
D
3
ACAD_MLINESTYLE
350
17
0
DICTIONARY
5
D
100
AcDbDictionary
0
DICTIONARY
5
1A
330
C
100
AcDbDictionary
0
DICTIONARY
5
17
100
AcDbDictionary
0
ENDSEC
0
EOF
